<?xml version="1.0" standalone="no"?>
<svg viewBox="0 0 200 200" xmlns="http://www.w3.org/2000/svg">
  <path fill="#FFD93D" d="M39.9,-60.1C50.6,-62.9,57.3,-50,65.2,-37.3C73,-24.7,82,-12.3,82.2,0.2C82.5,12.6,74.1,25.3,59,25.4C43.9,25.4,22.1,12.9,11.1,12.4C0.2,11.9,0.1,23.5,-4.3,31C-8.7,38.5,-17.5,42,-21.7,38.5C-25.9,35.1,-25.5,24.8,-30.2,17.3C-34.9,9.7,-44.5,4.8,-51.7,-4.2C-59,-13.2,-63.7,-26.4,-62.9,-40.6C-62.2,-54.9,-55.8,-70.3,-44.4,-67C-33,-63.8,-16.5,-41.8,-0.9,-40.2C14.6,-38.5,29.2,-57.2,39.9,-60.1Z" transform="translate(100 100)" />
</svg>
